<?xml version="1.0" standalone="no"?><!DOCTYPE svg PUBLIC "-//W3C//DTD SVG 1.1//EN" "http://www.w3.org/Graphics/SVG/1.1/DTD/svg11.dtd"><svg t="1529863502331" class="icon" style="" viewBox="0 0 1024 1024" version="1.1" xmlns="http://www.w3.org/2000/svg" p-id="81093" xmlns:xlink="http://www.w3.org/1999/xlink" width="76" height="76"><defs><style type="text/css"></style></defs><path d="M1002.55867 200.717608c-21.869957-126.116754-52.001898-156.005695-180.062649-178.361652-81.404841-14.336972-196.100617-22.355956-314.927385-22.355956-117.85477 0-226.718557 7.775985-306.665401 21.626958-126.116754 22.112957-156.005695 52.244898-178.361651 180.062648-29.645942 169.12767-30.131941 453.923113-0.971998 621.592786 21.869957 126.116754 52.001898 156.005695 180.062648 178.361652 81.647841 14.336972 196.586616 22.355956 315.656383 22.355956 117.368771 0 226.232558-7.775985 306.179402-21.383958 126.116754-22.112957 156.248695-52.244898 178.361652-180.062649 29.645942-169.12767 30.131941-453.923113 0.728999-621.835785z m-31.832938 616.489796c-19.925961 114.695776-39.851922 134.864737-152.846702 154.304699-78.002848 13.607973-184.922639 20.897959-300.590413 20.897959-117.368771 0-230.36355-8.018984-310.067394-22.112957-114.695776-19.925961-134.864737-40.094922-154.304699-152.846702-28.673944-164.753678-27.944945-444.689131 0.971998-610.900806 19.925961-114.452776 39.851922-134.864737 152.846702-154.304699 78.245847-13.607973 185.165638-21.140959 301.319411-21.140959 117.125771 0 229.877551 8.018984 309.581396 22.112957 114.452776 19.925961 134.864737 39.851922 154.304698 152.846702 28.187945 164.996678 28.187945 444.689131-1.214997 611.143806z m-194.156621-515.401993c-43.496915 0-78.731846 35.234931-78.731846 78.731846 0 13.121974 3.158994 25.51495 8.990982 36.206929l-128.303749 126.845752c-6.803987-3.887992-14.579972-5.831989-22.841956-5.831988-5.10299 0-9.962981 0.971998-14.579971 2.429995l-51.5159-70.712862c0.485999-2.429995 0.485999-4.859991 0.486-7.289986 0-25.75795-20.897959-46.655909-46.655909-46.655909s-46.655909 20.897959-46.655909 46.655909v0.728999L321.916999 535.570954H259.95212c-8.261984-13.364974-23.084955-22.355956-39.851922-22.355956-26.000949 0-46.898908 20.897959-46.898909 46.898908 0 26.000949 20.897959 46.898908 46.898909 46.898908 17.738965 0 33.047935-9.719981 41.06692-24.299952h80.432843L422.518802 503.981016c6.560987 3.401993 13.850973 5.10299 21.383959 5.10299 5.34599 0 10.44898-0.971998 15.06597-2.672995l51.029901 70.226863c-0.485999 2.672995-0.728999 5.34599-0.728999 8.018984 0 25.75795 20.897959 46.655909 46.655909 46.655909 25.271951 0 45.92691-20.168961 46.655909-45.440911l137.051732-135.836735c10.934979 5.831989 23.570954 9.233982 36.935928 9.233982 43.496915 0 78.731846-35.234931 78.731846-78.731846s-35.234931-78.731846-78.731846-78.731846z m1.214998 112.26578c-18.224964 0-33.290935-15.065971-33.290935-33.290935-0.243-18.467964 14.822971-33.290935 33.290935-33.290935s33.290935 15.065971 33.290935 33.290935c0 18.467964-15.065971 33.290935-33.290935 33.290935z" p-id="81094" fill="#00C1DE"></path></svg>